<svg width="26" height="29" viewBox="0 0 26 29" fill="none" xmlns="http://www.w3.org/2000/svg">
<g filter="url(#filter0_d)">
<path d="M9 3C6.239 3 4 5.239 4 8V16C4 18.761 6.239 21 9 21H17C19.761 21 22 18.761 22 16V8C22 5.239 19.761 3 17 3H9ZM19 5C19.552 5 20 5.448 20 6C20 6.552 19.552 7 19 7C18.448 7 18 6.552 18 6C18 5.448 18.448 5 19 5ZM13 7C15.761 7 18 9.239 18 12C18 14.761 15.761 17 13 17C10.239 17 8 14.761 8 12C8 9.239 10.239 7 13 7ZM13 9C12.2044 9 11.4413 9.31607 10.8787 9.87868C10.3161 10.4413 10 11.2044 10 12C10 12.7956 10.3161 13.5587 10.8787 14.1213C11.4413 14.6839 12.2044 15 13 15C13.7956 15 14.5587 14.6839 15.1213 14.1213C15.6839 13.5587 16 12.7956 16 12C16 11.2044 15.6839 10.4413 15.1213 9.87868C14.5587 9.31607 13.7956 9 13 9Z" fill="white"/>
</g>
<defs>
<filter id="filter0_d" x="-3" y="0" width="32" height="32" filterUnits="userSpaceOnUse" color-interpolation-filters="sRGB">
<feFlood flood-opacity="0" result="BackgroundImageFix"/>
<feColorMatrix in="SourceAlpha" type="matrix" values="0 0 0 0 0 0 0 0 0 0 0 0 0 0 0 0 0 0 127 0"/>
<feOffset dy="4"/>
<feGaussianBlur stdDeviation="2"/>
<feColorMatrix type="matrix" values="0 0 0 0 0 0 0 0 0 0 0 0 0 0 0 0 0 0 0.25 0"/>
<feBlend mode="normal" in2="BackgroundImageFix" result="effect1_dropShadow"/>
<feBlend mode="normal" in="SourceGraphic" in2="effect1_dropShadow" result="shape"/>
</filter>
</defs>
</svg>
